General
Unique ID : 188267307098249353198703522923040386033 (0x8DA2F6E4D116E00D860BD4B59A22ABF1)
Complete name : F:VideosRace 2008 720p BluRay nHD x264 NhaNc3-Race Saanson Ki.mkv
Format : Matroska
Format version : Version 2
File size : 91.9 MiB
Duration : 3mn 47s
Overall bit rate : 3 391 Kbps
Encoded date : UTC 2010-10-19 19:23:33
Writing application : mkvmerge v4.0.0 ('The Stars were mine') built on Jun 6 2010 16:18:42
Writing library : libebml v1.0.0 + libmatroska v1.0.0

Video
ID : 1
Format : AVC
Format/Info : Advanced Video Codec
Format profile : High@L4.1
Format settings, CABAC : Yes
Format settings, ReFrames : 8 frames
Codec ID : V_MPEG4/ISO/AVC
Duration : 3mn 47s
Bit rate : 3 100 Kbps
Width : 1 280 pixels
Height : 544 pixels
Display aspect ratio : 2.35:1
Frame rate mode : Constant
Frame rate : 24.000 fps
Color space : YUV
Chroma subsampling : 4:2:0
Bit depth : 8 bits
Scan type : Progressive
Bits/(Pixel*Frame) : 0.185
Stream size : 84.0 MiB (91%)
Language : English
Default : No
Forced : No

Audio
ID : 2
Format : AC-3
Format/Info : Audio Coding 3
Mode extension : CM (complete main)
Format settings, Endianness : Big
Codec ID : A_AC3
Duration : 3mn 47s
Bit rate mode : Constant
Bit rate : 224 Kbps
Channel(s) : 6 channels
Channel positions : Front: L C R, Side: L R, LFE
Sampling rate : 48.0 KHz
Bit depth : 16 bits
Compression mode : Lossy
Delay relative to video : 21ms
Stream size : 6.07 MiB (7%)
Language : Hindi
Default : No
Forced : No